<svg xmlns="http://www.w3.org/2000/svg" xmlns:xlink="http://www.w3.org/1999/xlink" width="500" zoomAndPan="magnify" viewBox="0 0 375 374.999991" height="500" preserveAspectRatio="xMidYMid meet" version="1.0"><defs><g/><clipPath id="03b2531bb2"><path d="M 116 37.5 L 259.1875 37.5 L 259.1875 136.5 L 116 136.5 Z M 116 37.5 " clip-rule="nonzero"/></clipPath></defs><rect x="-37.5" width="450" fill="#ffffff" y="-37.499999" height="449.999989" fill-opacity="1"/><rect x="-37.5" width="450" fill="#ffffff" y="-37.499999" height="449.999989" fill-opacity="1"/><rect x="-37.5" width="450" fill="#000000" y="-37.499999" height="449.999989" fill-opacity="1"/><path fill="#cae8ff" d="M 188.96875 95.820312 C 188.070312 95.820312 187.183594 95.679688 186.300781 95.394531 L 145.402344 81.789062 C 144.664062 83.710938 144.292969 86.1875 144.292969 89.800781 C 146.960938 91.34375 149.5625 94.441406 149.5625 99.785156 C 149.5625 103.058594 147.921875 105.410156 146.511719 106.976562 C 152.578125 113.996094 169.273438 119.046875 188.972656 119.046875 C 213.796875 119.046875 233.914062 111.03125 233.914062 101.164062 C 233.914062 98.984375 233.914062 90.078125 233.914062 81.332031 L 191.625 95.394531 C 190.753906 95.679688 189.867188 95.820312 188.96875 95.820312 Z M 188.96875 95.820312 " fill-opacity="1" fill-rule="nonzero"/><g clip-path="url(#03b2531bb2)"><path fill="#cae8ff" d="M 257.269531 60.523438 L 189.855469 38.105469 C 189.273438 37.914062 188.660156 37.914062 188.082031 38.105469 L 120.667969 60.523438 C 119.523438 60.90625 118.746094 61.976562 118.746094 63.179688 C 118.746094 64.386719 119.523438 65.457031 120.667969 65.835938 L 136.125 70.976562 C 132.566406 75.089844 130.5 80.890625 129.742188 90.328125 C 127.296875 91.476562 125.574219 93.925781 125.574219 96.808594 C 125.574219 99.738281 127.335938 102.234375 129.855469 103.359375 C 127.65625 122.445312 116.203125 128.804688 116.203125 130.4375 C 116.203125 131.265625 125.074219 136.039062 127.179688 136.039062 C 130.4375 136.039062 138.257812 130.527344 138.257812 118.617188 C 138.257812 111.597656 137.625 106.296875 136.953125 102.535156 C 138.757812 101.230469 140.011719 99.207031 140.011719 96.808594 C 140.011719 94.191406 138.542969 92.003906 136.449219 90.742188 C 137.632812 75.167969 142.460938 72.5625 154.132812 67.730469 C 155.300781 67.273438 157.507812 66.378906 158.785156 65.855469 C 161.078125 64.914062 163.148438 64.070312 165.136719 63.277344 C 171.558594 60.730469 176.984375 58.683594 181.125 57.167969 C 185.660156 55.550781 187.695312 54.964844 187.765625 54.941406 C 189.503906 54.359375 191.433594 55.292969 192.03125 57.058594 C 192.621094 58.820312 191.675781 60.726562 189.90625 61.320312 C 189.773438 61.363281 181.882812 63.613281 161.363281 72.074219 C 160.042969 72.617188 158.785156 73.113281 157.589844 73.582031 C 155.15625 74.539062 153.140625 75.308594 151.449219 76.082031 L 188.082031 88.261719 C 188.375 88.351562 188.664062 88.402344 188.96875 88.402344 C 189.273438 88.402344 189.5625 88.351562 189.855469 88.253906 L 257.269531 65.835938 C 258.414062 65.457031 259.1875 64.386719 259.1875 63.179688 C 259.1875 61.976562 258.414062 60.90625 257.269531 60.523438 Z M 257.269531 60.523438 " fill-opacity="1" fill-rule="nonzero"/></g><g fill="#ffffff" fill-opacity="1"><g transform="translate(110.502675, 174.749989)"><g><path d="M 2.65625 -25.0625 L 1.125 -27.1875 L 1.3125 -30.328125 L 14.21875 -30.328125 L 14.484375 -26.0625 L 11.25 -25.203125 L 16.828125 -7.78125 L 21.28125 -21.640625 L 19.3125 -27.453125 L 19.484375 -30.328125 L 31.453125 -30.328125 L 31.71875 -26.0625 L 28.75 -25.203125 L 34.296875 -7.78125 L 39.46875 -23.71875 C 39.550781 -23.957031 39.59375 -24.164062 39.59375 -24.34375 C 39.59375 -24.738281 39.398438 -24.992188 39.015625 -25.109375 L 35.953125 -26.375 L 36.21875 -30.328125 L 48.015625 -30.328125 L 48.234375 -26.5 L 46.390625 -23.984375 L 36.9375 0.1875 L 29.0625 0.9375 L 24.34375 -12.828125 L 19.484375 0.1875 L 11.15625 0.9375 Z M 2.65625 -25.0625 "/></g></g></g><g fill="#ffffff" fill-opacity="1"><g transform="translate(159.642629, 174.749989)"><g><path d="M 1.21875 -4.59375 L 4.5 -5.484375 L 4.5 -22.71875 C 4.5 -23.5 4.4375 -24.015625 4.3125 -24.265625 C 4.195312 -24.523438 3.882812 -24.757812 3.375 -24.96875 L 1.125 -26.28125 L 1.265625 -30.328125 L 25.6875 -30.328125 C 25.90625 -27.179688 26.015625 -24.109375 26.015625 -21.109375 L 22.6875 -20.875 L 19.484375 -24.84375 L 12.6875 -25.015625 L 12.6875 -17.6875 L 22.28125 -18.5 L 22.28125 -11.5625 L 12.6875 -12.59375 L 12.6875 -5.359375 L 20.15625 -5.484375 L 23.625 -9.453125 L 26.953125 -9.21875 C 26.835938 -6.070312 26.613281 -3 26.28125 0 L 1.4375 0 Z M 1.21875 -4.59375 "/></g></g></g><g fill="#ffffff" fill-opacity="1"><g transform="translate(187.677596, 174.749989)"><g><path d="M 9.21875 -19.171875 L 9.984375 -7.375 C 10.015625 -6.6875 10.085938 -6.238281 10.203125 -6.03125 C 10.328125 -5.820312 10.601562 -5.597656 11.03125 -5.359375 L 13.359375 -3.78125 L 13.1875 0 L 1.484375 0 L 1.265625 -4.90625 L 3.6875 -5.484375 L 3.875 -23.21875 C 3.875 -23.789062 3.828125 -24.179688 3.734375 -24.390625 C 3.640625 -24.597656 3.429688 -24.835938 3.109375 -25.109375 L 1.4375 -26.375 L 1.75 -30.328125 L 11.0625 -30.328125 L 24.65625 -12.921875 L 24.03125 -22.953125 C 24 -23.671875 23.921875 -24.132812 23.796875 -24.34375 C 23.679688 -24.550781 23.414062 -24.773438 23 -25.015625 L 20.65625 -26.546875 L 20.796875 -30.328125 L 32.40625 -30.328125 L 32.578125 -25.734375 L 30.28125 -24.75 L 30.109375 -0.40625 L 24.9375 1.3125 Z M 9.21875 -19.171875 "/></g></g></g><g fill="#ffffff" fill-opacity="1"><g transform="translate(221.337563, 174.749989)"><g><path d="M 11.296875 0.546875 C 7.992188 0.546875 4.648438 0.0351562 1.265625 -0.984375 C 1.410156 -3.953125 1.648438 -6.710938 1.984375 -9.265625 L 5.4375 -9.9375 L 7.6875 -6.125 C 9.488281 -5.488281 11.082031 -5.171875 12.46875 -5.171875 C 12.945312 -5.171875 13.96875 -5.304688 15.53125 -5.578125 C 15.582031 -6.179688 15.609375 -6.585938 15.609375 -6.796875 C 15.609375 -7.515625 15.488281 -8.0625 15.25 -8.4375 C 15.007812 -8.8125 14.484375 -9.226562 13.671875 -9.6875 C 12.867188 -10.15625 11.414062 -10.859375 9.3125 -11.796875 C 6.726562 -13.054688 4.867188 -14.410156 3.734375 -15.859375 C 2.597656 -17.316406 2.03125 -19.035156 2.03125 -21.015625 C 2.03125 -24.109375 3.078125 -26.523438 5.171875 -28.265625 C 7.273438 -30.003906 10.15625 -30.875 13.8125 -30.875 C 15.582031 -30.875 17.34375 -30.695312 19.09375 -30.34375 C 20.851562 -30 22.394531 -29.53125 23.71875 -28.9375 C 23.65625 -27.257812 23.519531 -25.175781 23.3125 -22.6875 L 23.171875 -20.75 L 19.890625 -20.25 L 16.46875 -24.609375 C 15.382812 -24.941406 14.035156 -25.109375 12.421875 -25.109375 C 11.398438 -25.109375 10.632812 -25.019531 10.125 -24.84375 C 9.976562 -24.238281 9.90625 -23.769531 9.90625 -23.4375 C 9.90625 -22.78125 10.066406 -22.203125 10.390625 -21.703125 C 10.722656 -21.210938 11.304688 -20.703125 12.140625 -20.171875 C 12.984375 -19.648438 14.234375 -19 15.890625 -18.21875 C 18.285156 -17.082031 20.097656 -16.078125 21.328125 -15.203125 C 22.554688 -14.335938 23.414062 -13.429688 23.90625 -12.484375 C 24.40625 -11.535156 24.65625 -10.390625 24.65625 -9.046875 C 24.65625 -6.078125 23.46875 -3.734375 21.09375 -2.015625 C 18.726562 -0.304688 15.460938 0.546875 11.296875 0.546875 Z M 11.296875 0.546875 "/></g></g></g><g fill="#ffffff" fill-opacity="1"><g transform="translate(247.032534, 174.749989)"><g><path d="M 1.4375 -4.59375 L 4.71875 -5.484375 L 4.71875 -22.71875 C 4.71875 -23.5 4.65625 -24.015625 4.53125 -24.265625 C 4.414062 -24.523438 4.101562 -24.757812 3.59375 -24.96875 L 1.265625 -26.328125 L 1.484375 -30.328125 L 15.9375 -30.328125 L 16.109375 -25.734375 L 12.875 -24.84375 L 12.875 -7.296875 C 12.875 -6.566406 12.925781 -6.097656 13.03125 -5.890625 C 13.132812 -5.679688 13.410156 -5.472656 13.859375 -5.265625 L 16.15625 -3.875 L 16.015625 0 L 1.671875 0 Z M 1.4375 -4.59375 "/></g></g></g><g fill="#ffffff" fill-opacity="1"><g transform="translate(95.810007, 282.749981)"><g><path d="M 0.71875 -4 L 2.109375 -4.859375 L 12.640625 -30.375 L 20.296875 -31.046875 L 29.296875 -6.75 C 29.597656 -5.96875 29.804688 -5.457031 29.921875 -5.21875 C 30.046875 -4.976562 30.269531 -4.648438 30.59375 -4.234375 L 31.40625 -3.1875 L 31.140625 0 L 18.5 0 L 18.046875 -4.28125 L 21.234375 -5.078125 L 19.796875 -9.625 L 10.671875 -9.5 L 9.671875 -6.65625 C 9.585938 -6.382812 9.546875 -6.160156 9.546875 -5.984375 C 9.546875 -5.773438 9.582031 -5.617188 9.65625 -5.515625 C 9.726562 -5.410156 9.851562 -5.328125 10.03125 -5.265625 L 13.140625 -3.953125 L 12.6875 0 L 0.90625 0 Z M 15.4375 -23.359375 L 12.46875 -14.71875 L 18.265625 -14.4375 Z M 15.4375 -23.359375 "/></g></g></g><g fill="#ffffff" fill-opacity="1"><g transform="translate(127.849971, 282.749981)"><g><path d="M 16.375 0.546875 C 11.3125 0.546875 7.503906 -0.785156 4.953125 -3.453125 C 2.398438 -6.128906 1.125 -10.09375 1.125 -15.34375 C 1.125 -18.550781 1.738281 -21.316406 2.96875 -23.640625 C 4.195312 -25.972656 5.976562 -27.753906 8.3125 -28.984375 C 10.65625 -30.210938 13.4375 -30.828125 16.65625 -30.828125 C 20.550781 -30.828125 24.34375 -30.046875 28.03125 -28.484375 C 27.726562 -25.609375 27.3125 -22.726562 26.78125 -19.84375 L 23.359375 -19.625 L 20.515625 -23.765625 C 19.015625 -24.296875 17.15625 -24.5625 14.9375 -24.5625 C 13.882812 -24.5625 12.625 -24.457031 11.15625 -24.25 C 10.613281 -23.351562 10.191406 -22.15625 9.890625 -20.65625 C 9.597656 -19.15625 9.453125 -17.535156 9.453125 -15.796875 C 9.453125 -12.347656 10.140625 -9.773438 11.515625 -8.078125 C 12.898438 -6.378906 15.046875 -5.515625 17.953125 -5.484375 C 18.671875 -5.484375 19.585938 -5.546875 20.703125 -5.671875 L 20.703125 -8.953125 C 20.703125 -9.554688 20.65625 -9.945312 20.5625 -10.125 C 20.476562 -10.300781 20.222656 -10.507812 19.796875 -10.75 L 18.09375 -11.609375 L 18.265625 -14.671875 L 19.3125 -14.84375 C 19.632812 -14.90625 20.800781 -15.09375 22.8125 -15.40625 C 24.820312 -15.726562 26.503906 -15.914062 27.859375 -15.96875 C 28.160156 -15.40625 28.382812 -14.765625 28.53125 -14.046875 L 28.53125 -2.25 C 26.789062 -1.375 24.851562 -0.6875 22.71875 -0.1875 C 20.59375 0.300781 18.476562 0.546875 16.375 0.546875 Z M 16.375 0.546875 "/></g></g></g><g fill="#ffffff" fill-opacity="1"><g transform="translate(158.269944, 282.749981)"><g><path d="M 1.21875 -4.59375 L 4.5 -5.484375 L 4.5 -22.71875 C 4.5 -23.5 4.4375 -24.015625 4.3125 -24.265625 C 4.195312 -24.523438 3.882812 -24.757812 3.375 -24.96875 L 1.125 -26.28125 L 1.265625 -30.328125 L 25.6875 -30.328125 C 25.90625 -27.179688 26.015625 -24.109375 26.015625 -21.109375 L 22.6875 -20.875 L 19.484375 -24.84375 L 12.6875 -25.015625 L 12.6875 -17.6875 L 22.28125 -18.5 L 22.28125 -11.5625 L 12.6875 -12.59375 L 12.6875 -5.359375 L 20.15625 -5.484375 L 23.625 -9.453125 L 26.953125 -9.21875 C 26.835938 -6.070312 26.613281 -3 26.28125 0 L 1.4375 0 Z M 1.21875 -4.59375 "/></g></g></g><g fill="#ffffff" fill-opacity="1"><g transform="translate(186.304912, 282.749981)"><g><path d="M 9.21875 -19.171875 L 9.984375 -7.375 C 10.015625 -6.6875 10.085938 -6.238281 10.203125 -6.03125 C 10.328125 -5.820312 10.601562 -5.597656 11.03125 -5.359375 L 13.359375 -3.78125 L 13.1875 0 L 1.484375 0 L 1.265625 -4.90625 L 3.6875 -5.484375 L 3.875 -23.21875 C 3.875 -23.789062 3.828125 -24.179688 3.734375 -24.390625 C 3.640625 -24.597656 3.429688 -24.835938 3.109375 -25.109375 L 1.4375 -26.375 L 1.75 -30.328125 L 11.0625 -30.328125 L 24.65625 -12.921875 L 24.03125 -22.953125 C 24 -23.671875 23.921875 -24.132812 23.796875 -24.34375 C 23.679688 -24.550781 23.414062 -24.773438 23 -25.015625 L 20.65625 -26.546875 L 20.796875 -30.328125 L 32.40625 -30.328125 L 32.578125 -25.734375 L 30.28125 -24.75 L 30.109375 -0.40625 L 24.9375 1.3125 Z M 9.21875 -19.171875 "/></g></g></g><g fill="#ffffff" fill-opacity="1"><g transform="translate(219.964879, 282.749981)"><g><path d="M 15.34375 0.671875 C 10.78125 0.671875 7.269531 -0.71875 4.8125 -3.5 C 2.351562 -6.289062 1.125 -10.238281 1.125 -15.34375 C 1.125 -18.582031 1.71875 -21.378906 2.90625 -23.734375 C 4.09375 -26.085938 5.8125 -27.882812 8.0625 -29.125 C 10.3125 -30.375 12.976562 -31 16.0625 -31 C 19.570312 -31 23.1875 -30.207031 26.90625 -28.625 C 26.632812 -25.914062 26.203125 -22.929688 25.609375 -19.671875 L 22.1875 -19.4375 L 19.078125 -23.984375 C 17.753906 -24.367188 16.300781 -24.5625 14.71875 -24.5625 C 13.519531 -24.5625 12.378906 -24.457031 11.296875 -24.25 C 10.816406 -23.320312 10.425781 -22.09375 10.125 -20.5625 C 9.820312 -19.03125 9.671875 -17.488281 9.671875 -15.9375 C 9.671875 -12.601562 10.273438 -10.132812 11.484375 -8.53125 C 12.703125 -6.925781 14.632812 -6.09375 17.28125 -6.03125 C 18.332031 -6.03125 19.660156 -6.1875 21.265625 -6.5 C 22.867188 -6.8125 24.4375 -7.222656 25.96875 -7.734375 L 27.359375 -2.796875 C 25.796875 -1.773438 23.910156 -0.941406 21.703125 -0.296875 C 19.503906 0.347656 17.382812 0.671875 15.34375 0.671875 Z M 15.34375 0.671875 "/></g></g></g><g fill="#ffffff" fill-opacity="1"><g transform="translate(248.899844, 282.749981)"><g><path d="M 7.203125 -4.40625 L 11.0625 -5.484375 L 11.0625 -11.4375 L 2.828125 -24.609375 L 0.765625 -27.1875 L 0.9375 -30.328125 L 14.125 -30.328125 L 14.578125 -26.0625 L 11.65625 -25.25 L 16.375 -17.234375 L 20.296875 -23.84375 C 20.410156 -24.0625 20.46875 -24.273438 20.46875 -24.484375 C 20.46875 -24.804688 20.289062 -25.046875 19.9375 -25.203125 L 17.328125 -26.375 L 17.640625 -30.328125 L 28.984375 -30.328125 L 29.296875 -26.09375 L 27.5 -25.015625 L 19.21875 -12.875 L 19.21875 -7.296875 C 19.21875 -6.566406 19.269531 -6.097656 19.375 -5.890625 C 19.476562 -5.679688 19.738281 -5.472656 20.15625 -5.265625 L 22.953125 -3.59375 L 22.765625 0 L 7.421875 0 Z M 7.203125 -4.40625 "/></g></g></g><g fill="#ffffff" fill-opacity="1"><g transform="translate(19.293203, 228.749985)"><g><path d="M 1.671875 -4.59375 L 4.953125 -5.484375 L 4.953125 -22.640625 C 4.953125 -23.421875 4.890625 -23.9375 4.765625 -24.1875 C 4.648438 -24.4375 4.335938 -24.671875 3.828125 -24.890625 L 1.484375 -26.1875 L 1.75 -29.875 C 6.25 -30.539062 10.585938 -30.875 14.765625 -30.875 C 18.003906 -30.875 20.613281 -30.550781 22.59375 -29.90625 C 24.570312 -29.257812 26.019531 -28.253906 26.9375 -26.890625 C 27.851562 -25.523438 28.3125 -23.71875 28.3125 -21.46875 C 28.3125 -19.601562 27.828125 -17.972656 26.859375 -16.578125 C 25.898438 -15.179688 24.535156 -14.109375 22.765625 -13.359375 L 29.96875 -1.75 L 29.921875 0 L 21.734375 0 L 15.078125 -12.015625 L 13.09375 -12.0625 L 13.09375 -7.015625 C 13.09375 -6.296875 13.144531 -5.835938 13.25 -5.640625 C 13.351562 -5.453125 13.617188 -5.238281 14.046875 -5 L 15.96875 -3.875 L 15.796875 0 L 1.890625 0 Z M 15.96875 -17.09375 C 17.5625 -17.09375 18.734375 -17.242188 19.484375 -17.546875 C 19.785156 -18.628906 19.9375 -19.921875 19.9375 -21.421875 C 19.9375 -22.921875 19.613281 -23.984375 18.96875 -24.609375 C 18.320312 -25.242188 17.25 -25.5625 15.75 -25.5625 C 14.90625 -25.5625 14.050781 -25.515625 13.1875 -25.421875 L 13.1875 -17.375 C 13.96875 -17.1875 14.894531 -17.09375 15.96875 -17.09375 Z M 15.96875 -17.09375 "/></g></g></g><g fill="#ffffff" fill-opacity="1"><g transform="translate(49.623169, 228.749985)"><g><path d="M 1.21875 -4.59375 L 4.5 -5.484375 L 4.5 -22.71875 C 4.5 -23.5 4.4375 -24.015625 4.3125 -24.265625 C 4.195312 -24.523438 3.882812 -24.757812 3.375 -24.96875 L 1.125 -26.28125 L 1.265625 -30.328125 L 25.6875 -30.328125 C 25.90625 -27.179688 26.015625 -24.109375 26.015625 -21.109375 L 22.6875 -20.875 L 19.484375 -24.84375 L 12.6875 -25.015625 L 12.6875 -17.6875 L 22.28125 -18.5 L 22.28125 -11.5625 L 12.6875 -12.59375 L 12.6875 -5.359375 L 20.15625 -5.484375 L 23.625 -9.453125 L 26.953125 -9.21875 C 26.835938 -6.070312 26.613281 -3 26.28125 0 L 1.4375 0 Z M 1.21875 -4.59375 "/></g></g></g><g fill="#ffffff" fill-opacity="1"><g transform="translate(77.658136, 228.749985)"><g><path d="M 15.34375 0.671875 C 10.78125 0.671875 7.269531 -0.71875 4.8125 -3.5 C 2.351562 -6.289062 1.125 -10.238281 1.125 -15.34375 C 1.125 -18.582031 1.71875 -21.378906 2.90625 -23.734375 C 4.09375 -26.085938 5.8125 -27.882812 8.0625 -29.125 C 10.3125 -30.375 12.976562 -31 16.0625 -31 C 19.570312 -31 23.1875 -30.207031 26.90625 -28.625 C 26.632812 -25.914062 26.203125 -22.929688 25.609375 -19.671875 L 22.1875 -19.4375 L 19.078125 -23.984375 C 17.753906 -24.367188 16.300781 -24.5625 14.71875 -24.5625 C 13.519531 -24.5625 12.378906 -24.457031 11.296875 -24.25 C 10.816406 -23.320312 10.425781 -22.09375 10.125 -20.5625 C 9.820312 -19.03125 9.671875 -17.488281 9.671875 -15.9375 C 9.671875 -12.601562 10.273438 -10.132812 11.484375 -8.53125 C 12.703125 -6.925781 14.632812 -6.09375 17.28125 -6.03125 C 18.332031 -6.03125 19.660156 -6.1875 21.265625 -6.5 C 22.867188 -6.8125 24.4375 -7.222656 25.96875 -7.734375 L 27.359375 -2.796875 C 25.796875 -1.773438 23.910156 -0.941406 21.703125 -0.296875 C 19.503906 0.347656 17.382812 0.671875 15.34375 0.671875 Z M 15.34375 0.671875 "/></g></g></g><g fill="#ffffff" fill-opacity="1"><g transform="translate(106.593101, 228.749985)"><g><path d="M 1.671875 -4.59375 L 4.953125 -5.484375 L 4.953125 -22.640625 C 4.953125 -23.421875 4.890625 -23.9375 4.765625 -24.1875 C 4.648438 -24.4375 4.335938 -24.671875 3.828125 -24.890625 L 1.484375 -26.1875 L 1.75 -29.875 C 6.25 -30.539062 10.585938 -30.875 14.765625 -30.875 C 18.003906 -30.875 20.613281 -30.550781 22.59375 -29.90625 C 24.570312 -29.257812 26.019531 -28.253906 26.9375 -26.890625 C 27.851562 -25.523438 28.3125 -23.71875 28.3125 -21.46875 C 28.3125 -19.601562 27.828125 -17.972656 26.859375 -16.578125 C 25.898438 -15.179688 24.535156 -14.109375 22.765625 -13.359375 L 29.96875 -1.75 L 29.921875 0 L 21.734375 0 L 15.078125 -12.015625 L 13.09375 -12.0625 L 13.09375 -7.015625 C 13.09375 -6.296875 13.144531 -5.835938 13.25 -5.640625 C 13.351562 -5.453125 13.617188 -5.238281 14.046875 -5 L 15.96875 -3.875 L 15.796875 0 L 1.890625 0 Z M 15.96875 -17.09375 C 17.5625 -17.09375 18.734375 -17.242188 19.484375 -17.546875 C 19.785156 -18.628906 19.9375 -19.921875 19.9375 -21.421875 C 19.9375 -22.921875 19.613281 -23.984375 18.96875 -24.609375 C 18.320312 -25.242188 17.25 -25.5625 15.75 -25.5625 C 14.90625 -25.5625 14.050781 -25.515625 13.1875 -25.421875 L 13.1875 -17.375 C 13.96875 -17.1875 14.894531 -17.09375 15.96875 -17.09375 Z M 15.96875 -17.09375 "/></g></g></g><g fill="#ffffff" fill-opacity="1"><g transform="translate(136.923067, 228.749985)"><g><path d="M 16.375 0.578125 C 11.96875 0.578125 8.734375 -0.582031 6.671875 -2.90625 C 4.617188 -5.226562 3.59375 -8.878906 3.59375 -13.859375 L 3.59375 -22.71875 C 3.59375 -23.5 3.539062 -24.015625 3.4375 -24.265625 C 3.332031 -24.523438 3.039062 -24.757812 2.5625 -24.96875 L 1.125 -25.828125 L 1.265625 -30.328125 L 15.296875 -30.328125 L 15.53125 -25.875 L 11.796875 -24.84375 L 11.796875 -15.609375 C 11.796875 -12.492188 12.242188 -10.035156 13.140625 -8.234375 C 14.035156 -6.429688 15.582031 -5.53125 17.78125 -5.53125 C 18.5 -5.53125 19.191406 -5.632812 19.859375 -5.84375 C 20.535156 -6.0625 21.113281 -6.347656 21.59375 -6.703125 C 21.894531 -7.390625 22.101562 -8.3125 22.21875 -9.46875 C 22.34375 -10.625 22.40625 -12.175781 22.40625 -14.125 L 22.40625 -22.71875 C 22.40625 -23.5 22.34375 -24.015625 22.21875 -24.265625 C 22.101562 -24.523438 21.789062 -24.757812 21.28125 -24.96875 L 19.078125 -26.234375 L 19.3125 -30.328125 L 32.671875 -30.328125 L 32.890625 -25.46875 L 30.5625 -24.84375 L 30.5625 -14.671875 C 30.5625 -9.835938 29.320312 -6.085938 26.84375 -3.421875 C 24.363281 -0.753906 20.875 0.578125 16.375 0.578125 Z M 16.375 0.578125 "/></g></g></g><g fill="#ffffff" fill-opacity="1"><g transform="translate(170.808036, 228.749985)"><g><path d="M 1.4375 -4.59375 L 4.71875 -5.484375 L 4.71875 -22.71875 C 4.71875 -23.5 4.65625 -24.015625 4.53125 -24.265625 C 4.414062 -24.523438 4.101562 -24.757812 3.59375 -24.96875 L 1.265625 -26.328125 L 1.484375 -30.328125 L 15.9375 -30.328125 L 16.109375 -25.734375 L 12.875 -24.84375 L 12.875 -7.296875 C 12.875 -6.566406 12.925781 -6.097656 13.03125 -5.890625 C 13.132812 -5.679688 13.410156 -5.472656 13.859375 -5.265625 L 16.15625 -3.875 L 16.015625 0 L 1.671875 0 Z M 1.4375 -4.59375 "/></g></g></g><g fill="#ffffff" fill-opacity="1"><g transform="translate(188.268023, 228.749985)"><g><path d="M 7.734375 -4.40625 L 11.65625 -5.484375 L 11.65625 -24.96875 L 7.875 -24.65625 L 4.546875 -20.65625 L 1.265625 -20.921875 C 1.265625 -23.410156 1.382812 -26.546875 1.625 -30.328125 L 29.796875 -30.328125 C 30.035156 -26.546875 30.15625 -23.410156 30.15625 -20.921875 L 26.90625 -20.65625 L 23.53125 -24.65625 L 19.84375 -24.96875 L 19.84375 -7.296875 C 19.84375 -6.566406 19.882812 -6.097656 19.96875 -5.890625 C 20.0625 -5.679688 20.320312 -5.472656 20.75 -5.265625 L 23.53125 -3.59375 L 23.359375 0 L 7.96875 0 Z M 7.734375 -4.40625 "/></g></g></g><g fill="#ffffff" fill-opacity="1"><g transform="translate(219.723, 228.749985)"><g><path d="M 10.265625 -19.890625 L 9.265625 -6.5625 L 9.265625 -6.390625 C 9.265625 -5.816406 9.476562 -5.441406 9.90625 -5.265625 L 12.6875 -4.09375 L 12.234375 0 L 1.03125 0 L 0.578125 -4 L 2.65625 -5.265625 L 5.21875 -22.640625 C 5.25 -22.847656 5.265625 -23.101562 5.265625 -23.40625 C 5.265625 -23.757812 5.179688 -24.023438 5.015625 -24.203125 C 4.847656 -24.390625 4.539062 -24.617188 4.09375 -24.890625 L 2.03125 -26.0625 L 2.296875 -30.328125 L 15.203125 -30.328125 L 21.640625 -9.359375 L 28.03125 -30.328125 L 40.09375 -30.328125 L 40.28125 -25.609375 L 37.390625 -24.890625 L 39.828125 -7.25 C 39.910156 -6.644531 40.035156 -6.175781 40.203125 -5.84375 C 40.367188 -5.519531 40.753906 -4.984375 41.359375 -4.234375 L 42.296875 -3.015625 L 42.03125 0 L 28.625 0 L 28.21875 -4.140625 L 31.90625 -5.078125 L 30.375 -20.15625 L 24.609375 0.1875 L 16.921875 0.859375 Z M 10.265625 -19.890625 "/></g></g></g><g fill="#ffffff" fill-opacity="1"><g transform="translate(262.562948, 228.749985)"><g><path d="M 1.21875 -4.59375 L 4.5 -5.484375 L 4.5 -22.71875 C 4.5 -23.5 4.4375 -24.015625 4.3125 -24.265625 C 4.195312 -24.523438 3.882812 -24.757812 3.375 -24.96875 L 1.125 -26.28125 L 1.265625 -30.328125 L 25.6875 -30.328125 C 25.90625 -27.179688 26.015625 -24.109375 26.015625 -21.109375 L 22.6875 -20.875 L 19.484375 -24.84375 L 12.6875 -25.015625 L 12.6875 -17.6875 L 22.28125 -18.5 L 22.28125 -11.5625 L 12.6875 -12.59375 L 12.6875 -5.359375 L 20.15625 -5.484375 L 23.625 -9.453125 L 26.953125 -9.21875 C 26.835938 -6.070312 26.613281 -3 26.28125 0 L 1.4375 0 Z M 1.21875 -4.59375 "/></g></g></g><g fill="#ffffff" fill-opacity="1"><g transform="translate(290.597904, 228.749985)"><g><path d="M 9.21875 -19.171875 L 9.984375 -7.375 C 10.015625 -6.6875 10.085938 -6.238281 10.203125 -6.03125 C 10.328125 -5.820312 10.601562 -5.597656 11.03125 -5.359375 L 13.359375 -3.78125 L 13.1875 0 L 1.484375 0 L 1.265625 -4.90625 L 3.6875 -5.484375 L 3.875 -23.21875 C 3.875 -23.789062 3.828125 -24.179688 3.734375 -24.390625 C 3.640625 -24.597656 3.429688 -24.835938 3.109375 -25.109375 L 1.4375 -26.375 L 1.75 -30.328125 L 11.0625 -30.328125 L 24.65625 -12.921875 L 24.03125 -22.953125 C 24 -23.671875 23.921875 -24.132812 23.796875 -24.34375 C 23.679688 -24.550781 23.414062 -24.773438 23 -25.015625 L 20.65625 -26.546875 L 20.796875 -30.328125 L 32.40625 -30.328125 L 32.578125 -25.734375 L 30.28125 -24.75 L 30.109375 -0.40625 L 24.9375 1.3125 Z M 9.21875 -19.171875 "/></g></g></g><g fill="#ffffff" fill-opacity="1"><g transform="translate(324.25786, 228.749985)"><g><path d="M 7.734375 -4.40625 L 11.65625 -5.484375 L 11.65625 -24.96875 L 7.875 -24.65625 L 4.546875 -20.65625 L 1.265625 -20.921875 C 1.265625 -23.410156 1.382812 -26.546875 1.625 -30.328125 L 29.796875 -30.328125 C 30.035156 -26.546875 30.15625 -23.410156 30.15625 -20.921875 L 26.90625 -20.65625 L 23.53125 -24.65625 L 19.84375 -24.96875 L 19.84375 -7.296875 C 19.84375 -6.566406 19.882812 -6.097656 19.96875 -5.890625 C 20.0625 -5.679688 20.320312 -5.472656 20.75 -5.265625 L 23.53125 -3.59375 L 23.359375 0 L 7.96875 0 Z M 7.734375 -4.40625 "/></g></g></g></svg>